# This file uses centimeters as units for non-parametric coordinates.

mtllib TerrainGrass2.mtl
g default
v -3.651836 0.596351 -2.212014
v -7.911344 23.506287 -3.047433
v -5.234909 0.115790 3.374377
v -9.588908 23.167856 1.871502
v -4.747415 0.443398 -2.535638
v -8.630036 22.828147 -3.339195
v -6.330488 -0.037164 3.050753
v -10.307600 22.489716 1.579740
v -13.028618 28.748481 -4.507357
v -14.045021 28.797075 0.600408
v -13.821138 27.792854 0.654512
v -12.804736 27.744259 -4.453252
v -28.104263 28.710732 -5.682364
v -0.271364 0.810693 -3.031361
v -6.164638 31.954955 -2.733664
v -0.523884 0.157407 4.857899
v -6.761131 31.494883 4.306200
v -1.822896 0.602765 -3.098240
v -7.208544 31.033075 -2.882362
v -2.075415 -0.050521 4.791018
v -7.805038 30.573003 4.157502
v -11.529566 46.519495 -3.112679
v -12.126061 46.059425 3.927184
v -13.167280 45.134511 3.778516
v -12.570788 45.594585 -3.261348
v -26.327730 65.160976 0.236202
v -3.569036 -0.941923 5.603772
v 0.825409 30.008351 10.852913
v 2.755331 -1.571743 0.877604
v 6.701590 29.557804 6.929312
v -2.660085 -1.197489 6.854152
v 1.343284 29.054384 11.738052
v 3.664283 -1.827309 2.127984
v 7.219464 28.603840 7.814451
v 4.096734 44.400316 15.671811
v 9.972914 43.949771 11.748209
v 10.489092 42.992856 12.631146
v 4.612912 43.443401 16.554747
v 16.217312 62.593231 25.662554
v 5.263977 1.561570 2.133217
v 7.021937 29.591976 0.863148
v 1.811409 0.405935 -3.125834
v 4.316707 28.678032 -3.790947
v 6.324391 1.298697 1.494820
v 7.741407 28.832545 0.594080
v 2.871822 0.143062 -3.764231
v 5.036179 27.918602 -4.060013
v 12.256682 48.186452 -3.701717
v 9.749733 47.607880 -8.517797
v 10.610518 47.080825 -8.902548
v 13.117466 47.659402 -4.086470
v 18.750500 55.592043 -15.895802
v 3.015198 0.810693 0.413958
v 4.044009 31.954954 -5.396453
v -4.617424 0.157407 -1.597821
v -2.683779 31.494884 -7.553380
v 3.427623 0.602765 -1.083249
v 4.422567 31.033074 -6.380601
v -4.204998 -0.050521 -3.095028
v -2.305220 30.573004 -8.537529
v 5.900156 39.081305 -12.388372
v -1.067729 39.147365 -13.641926
v -1.135658 37.782204 -13.336270
v 5.832226 37.716143 -12.082718
v 7.119624 39.029987 -32.908482
v 0.615014 1.226952 8.135897
v 9.279418 31.484846 10.943497
v 4.648567 0.357101 1.375367
v 12.342007 30.948731 6.389235
v 1.906497 0.877645 8.951382
v 9.859864 30.697574 11.426505
v 5.940049 0.007793 2.190852
v 12.922454 30.161459 6.872242
v 15.566592 38.101125 15.457642
v 18.754276 38.022399 9.136277
v 18.355041 36.692674 8.951516
v 15.167359 36.771396 15.272880
v 29.182720 43.863822 22.938805
v -0.917178 -0.057675 1.864571
v -7.361433 23.639706 10.734731
v 4.062995 -0.896735 5.789772
v -4.078951 23.117245 13.623536
v -1.709671 -0.340548 2.809594
v -7.814001 23.012426 11.135526
v 3.270502 -1.179609 6.734794
v -4.531518 22.489965 14.024332
v -5.583294 43.462332 10.787832
v -2.585227 43.221020 13.690066
v -3.098131 42.802004 14.185067
v -6.096199 43.043325 11.282835
v -10.654917 53.976330 22.155597
vt 0.625000 0.000000
vt 0.375000 0.750000
vt 0.625000 0.750000
vt 0.625000 0.250000
vt 0.625000 0.750000
vt 0.375000 1.000000
vt 0.625000 0.500000
vt 0.625000 0.250000
vt 0.375000 0.000000
vt 0.625000 1.000000
vt 0.625000 0.750000
vt 0.625000 0.250000
vt 0.625000 1.000000
vt 0.375000 0.250000
vt 0.625000 0.250000
vt 0.625000 0.750000
vt 0.625000 0.250000
vt 0.375000 0.500000
vt 0.625000 0.500000
vt 0.125000 0.500000
vt 0.125000 0.750000
vt 0.625000 0.000000
vt 0.375000 0.750000
vt 0.375000 0.250000
vt 0.625000 0.750000
vt 0.625000 0.250000
vt 0.625000 1.000000
vt 0.625000 0.750000
vt 0.375000 1.000000
vt 0.625000 0.500000
vt 0.375000 0.000000
vt 0.625000 0.000000
vt 0.625000 0.750000
vt 0.375000 1.000000
vt 0.625000 0.500000
vt 0.375000 0.000000
vt 0.625000 0.500000
vt 0.625000 1.000000
vt 0.625000 0.750000
vt 0.625000 0.250000
vt 0.625000 1.000000
vt 0.625000 0.250000
vt 0.125000 0.500000
vt 0.375000 0.250000
vt 0.375000 0.500000
vt 0.125000 0.750000
vt 0.625000 0.000000
vt 0.625000 0.500000
vt 0.625000 1.000000
vt 0.375000 0.750000
vt 0.625000 1.000000
vt 0.625000 0.750000
vt 0.625000 0.250000
vt 0.625000 1.000000
vt 0.125000 0.500000
vt 0.625000 0.500000
vt 0.625000 0.000000
vt 0.375000 0.750000
vt 0.625000 1.000000
vt 0.625000 0.750000
vt 0.375000 1.000000
vt 0.625000 0.500000
vt 0.625000 0.500000
vt 0.375000 0.000000
vt 0.625000 0.500000
vt 0.625000 0.750000
vt 0.625000 0.250000
vt 0.375000 0.250000
vt 0.625000 0.250000
vt 0.625000 0.500000
vt 0.375000 0.500000
vt 0.125000 0.750000
vt 0.625000 0.000000
vt 0.625000 0.500000
vt 0.625000 1.000000
vt 0.625000 1.000000
vt 0.125000 0.500000
vt 0.375000 0.250000
vt 0.625000 0.750000
vt 0.625000 0.250000
vt 0.375000 0.500000
vt 0.125000 0.750000
vt 0.625000 0.000000
vt 0.625000 0.000000
vt 0.375000 0.750000
vt 0.625000 1.000000
vt 0.625000 0.500000
vt 0.625000 0.750000
vt 0.375000 1.000000
vt 0.375000 0.000000
vt 0.625000 0.000000
vt 0.625000 0.750000
vt 0.625000 0.250000
vt 0.625000 1.000000
vt 0.625000 0.500000
vt 0.625000 0.250000
vt 0.375000 0.500000
vt 0.125000 0.750000
vt 0.625000 1.000000
vt 0.625000 0.750000
vt 0.625000 0.250000
vt 0.625000 1.000000
vt 0.375000 0.250000
vt 0.625000 0.250000
vt 0.625000 0.750000
vt 0.625000 0.250000
vt 0.625000 1.000000
vt 0.125000 0.500000
vt 0.625000 0.500000
vt 0.625000 0.000000
vt 0.375000 0.750000
vt 0.625000 0.750000
vt 0.625000 0.250000
vt 0.625000 1.000000
vt 0.625000 0.750000
vt 0.375000 1.000000
vt 0.625000 0.500000
vt 0.375000 0.000000
vt 0.625000 0.000000
vt 0.625000 0.500000
vt 0.625000 0.750000
vt 0.625000 0.250000
vt 0.625000 0.750000
vt 0.375000 1.000000
vt 0.625000 0.500000
vt 0.625000 0.250000
vt 0.375000 0.000000
vt 0.375000 0.500000
vt 0.125000 0.750000
vt 0.625000 0.000000
vt 0.625000 0.500000
vt 0.625000 1.000000
vt 0.625000 1.000000
vt 0.125000 0.500000
vt 0.375000 0.250000
vt 0.625000 0.750000
vt 0.375000 0.500000
vt 0.125000 0.750000
vt 0.625000 0.000000
vt 0.625000 0.500000
vt 0.625000 1.000000
vt 0.625000 0.000000
vt 0.375000 0.750000
vt 0.625000 0.250000
vt 0.625000 1.000000
vt 0.125000 0.500000
vt 0.625000 0.500000
vn 0.933285 0.190394 0.304515
vn 0.933285 0.190394 0.304515
vn 0.933285 0.190394 0.304515
vn 0.933285 0.190394 0.304515
vn -0.322380 0.002837 0.946606
vn -0.322380 0.002837 0.946606
vn -0.322380 0.002837 0.946606
vn -0.322380 0.002837 0.946606
vn -0.935565 -0.179142 -0.304346
vn -0.935565 -0.179142 -0.304346
vn -0.935565 -0.179142 -0.304346
vn -0.935565 -0.179142 -0.304346
vn 0.312190 0.021752 -0.949771
vn 0.312190 0.021752 -0.949771
vn 0.312190 0.021752 -0.949771
vn 0.312190 0.021752 -0.949771
vn 0.150403 -0.987717 -0.042346
vn 0.150403 -0.987717 -0.042346
vn 0.150403 -0.987717 -0.042346
vn 0.150403 -0.987717 -0.042346
vn 0.707129 0.675331 0.209513
vn 0.707129 0.675331 0.209513
vn 0.707129 0.675331 0.209513
vn 0.707129 0.675331 0.209513
vn -0.407425 -0.041682 0.912287
vn -0.407425 -0.041682 0.912287
vn -0.407425 -0.041682 0.912287
vn 0.310065 0.042969 -0.949744
vn 0.310065 0.042969 -0.949744
vn 0.310065 0.042969 -0.949744
vn 0.310065 0.042969 -0.949744
vn -0.316907 -0.040653 0.947585
vn -0.316907 -0.040653 0.947585
vn -0.316907 -0.040653 0.947585
vn -0.316907 -0.040653 0.947585
vn -0.757568 -0.614101 -0.221294
vn -0.757568 -0.614101 -0.221294
vn -0.757568 -0.614101 -0.221294
vn -0.757568 -0.614101 -0.221294
vn -0.062804 -0.998021 -0.003002
vn -0.062804 -0.998021 -0.003002
vn -0.062804 -0.998021 -0.003002
vn -0.001736 0.999950 -0.009859
vn -0.001736 0.999950 -0.009859
vn -0.001736 0.999950 -0.009859
vn 0.077744 -0.036347 -0.996311
vn 0.077744 -0.036347 -0.996311
vn 0.077744 -0.036347 -0.996311
vn 0.979217 0.190394 0.069886
vn 0.979217 0.190394 0.069886
vn 0.979217 0.190394 0.069886
vn 0.979217 0.190394 0.069886
vn -0.084001 0.002837 0.996462
vn -0.084001 0.002837 0.996462
vn -0.084001 0.002837 0.996462
vn -0.084001 0.002837 0.996462
vn -0.981389 -0.179142 -0.069171
vn -0.981389 -0.179142 -0.069171
vn -0.981389 -0.179142 -0.069171
vn -0.981389 -0.179142 -0.069171
vn 0.073348 0.021752 -0.997069
vn 0.073348 0.021752 -0.997069
vn 0.073348 0.021752 -0.997069
vn 0.073348 0.021752 -0.997069
vn 0.135707 -0.987717 -0.077446
vn 0.135707 -0.987717 -0.077446
vn 0.135707 -0.987717 -0.077446
vn 0.135707 -0.987717 -0.077446
vn 0.932642 0.346189 0.101648
vn 0.932642 0.346189 0.101648
vn 0.932642 0.346189 0.101648
vn 0.932642 0.346189 0.101648
vn -0.185812 0.051456 0.981237
vn -0.185812 0.051456 0.981237
vn -0.185812 0.051456 0.981237
vn 0.123928 0.019824 -0.992093
vn 0.123928 0.019824 -0.992093
vn 0.123928 0.019824 -0.992093
vn 0.123928 0.019824 -0.992093
vn -0.123927 -0.019824 0.992093
vn -0.123927 -0.019824 0.992093
vn -0.123927 -0.019824 0.992093
vn -0.123927 -0.019824 0.992093
vn -0.932675 -0.346101 -0.101645
vn -0.932675 -0.346101 -0.101645
vn -0.932675 -0.346101 -0.101645
vn -0.932675 -0.346101 -0.101645
vn -0.822249 -0.559130 -0.106210
vn -0.822249 -0.559130 -0.106210
vn -0.822249 -0.559130 -0.106210
vn 0.787994 0.606419 0.106398
vn 0.787994 0.606419 0.106398
vn 0.787994 0.606419 0.106398
vn -0.009707 0.169338 -0.985510
vn -0.009707 0.169338 -0.985510
vn -0.009707 0.169338 -0.985510
vn -0.551049 0.220540 -0.804803
vn -0.551049 0.220540 -0.804803
vn -0.551049 0.220540 -0.804803
vn -0.551049 0.220540 -0.804803
vn 0.832566 0.004166 -0.553911
vn 0.832566 0.004166 -0.553911
vn 0.832566 0.004166 -0.553911
vn 0.832566 0.004166 -0.553911
vn 0.553139 -0.209357 0.806354
vn 0.553139 -0.209357 0.806354
vn 0.553139 -0.209357 0.806354
vn 0.553139 -0.209357 0.806354
vn -0.826025 0.020083 0.563275
vn -0.826025 0.020083 0.563275
vn -0.826025 0.020083 0.563275
vn -0.826025 0.020083 0.563275
vn -0.160790 -0.983398 -0.084113
vn -0.160790 -0.983398 -0.084113
vn -0.160790 -0.983398 -0.084113
vn -0.160790 -0.983398 -0.084113
vn -0.494733 0.374960 -0.783993
vn -0.494733 0.374960 -0.783993
vn -0.494733 0.374960 -0.783993
vn -0.494733 0.374960 -0.783993
vn 0.884721 0.049587 -0.463476
vn 0.884721 0.049587 -0.463476
vn 0.884721 0.049587 -0.463476
vn -0.853606 0.019722 0.520545
vn -0.853606 0.019722 0.520545
vn -0.853606 0.019722 0.520545
vn -0.853606 0.019722 0.520545
vn 0.853607 -0.019723 -0.520545
vn 0.853607 -0.019723 -0.520545
vn 0.853607 -0.019723 -0.520545
vn 0.853607 -0.019723 -0.520545
vn 0.494757 -0.374873 0.784019
vn 0.494757 -0.374873 0.784019
vn 0.494757 -0.374873 0.784019
vn 0.494757 -0.374873 0.784019
vn 0.419125 -0.584439 0.694813
vn 0.419125 -0.584439 0.694813
vn 0.419125 -0.584439 0.694813
vn -0.396925 0.630659 -0.666873
vn -0.396925 0.630659 -0.666873
vn -0.396925 0.630659 -0.666873
vn -0.762979 0.165102 0.624984
vn -0.762979 0.165102 0.624984
vn -0.762979 0.165102 0.624984
vn -0.854185 0.082326 0.513411
vn -0.854185 0.082326 0.513411
vn -0.854185 0.082326 0.513411
vn -0.854185 0.082326 0.513411
vn -0.444210 0.021654 -0.895661
vn -0.444210 0.021654 -0.895661
vn -0.444210 0.021654 -0.895661
vn -0.444210 0.021654 -0.895661
vn 0.853737 -0.066453 -0.516446
vn 0.853737 -0.066453 -0.516446
vn 0.853737 -0.066453 -0.516446
vn 0.853737 -0.066453 -0.516446
vn 0.458093 0.008551 0.888863
vn 0.458093 0.008551 0.888863
vn 0.458093 0.008551 0.888863
vn 0.458093 0.008551 0.888863
vn -0.079656 -0.961353 0.263544
vn -0.079656 -0.961353 0.263544
vn -0.079656 -0.961353 0.263544
vn -0.079656 -0.961353 0.263544
vn -0.844971 0.342025 0.411150
vn -0.844971 0.342025 0.411150
vn -0.844971 0.342025 0.411150
vn -0.844971 0.342025 0.411150
vn -0.502685 -0.208554 -0.838936
vn -0.502685 -0.208554 -0.838936
vn -0.502685 -0.208554 -0.838936
vn 0.444926 0.093884 0.890633
vn 0.444926 0.093884 0.890633
vn 0.444926 0.093884 0.890633
vn 0.444926 0.093884 0.890633
vn -0.445562 -0.094884 -0.890209
vn -0.445562 -0.094884 -0.890209
vn -0.445562 -0.094884 -0.890209
vn -0.445562 -0.094884 -0.890209
vn 0.843926 -0.346027 -0.409944
vn 0.843926 -0.346027 -0.409944
vn 0.843926 -0.346027 -0.409944
vn 0.843926 -0.346027 -0.409944
vn 0.605978 -0.763372 -0.223727
vn 0.605978 -0.763372 -0.223727
vn 0.605978 -0.763372 -0.223727
vn -0.557640 0.807264 0.193294
vn -0.557640 0.807264 0.193294
vn -0.557640 0.807264 0.193294
vn 0.591430 0.509930 0.624645
vn 0.591430 0.509930 0.624645
vn 0.591430 0.509930 0.624645
vn -0.287269 0.190394 0.938737
vn -0.287269 0.190394 0.938737
vn -0.287269 0.190394 0.938737
vn -0.287269 0.190394 0.938737
vn -0.952385 0.002837 -0.304885
vn -0.952385 0.002837 -0.304885
vn -0.952385 0.002837 -0.304885
vn -0.952385 0.002837 -0.304885
vn 0.287057 -0.179142 -0.941013
vn 0.287057 -0.179142 -0.941013
vn 0.287057 -0.179142 -0.941013
vn 0.287057 -0.179142 -0.941013
vn 0.955361 0.021752 0.294638
vn 0.955361 0.021752 0.294638
vn 0.955361 0.021752 0.294638
vn 0.955361 0.021752 0.294638
vn 0.045110 -0.987717 0.149598
vn 0.045110 -0.987717 0.149598
vn 0.045110 -0.987717 0.149598
vn 0.045110 -0.987717 0.149598
vn -0.196448 0.675332 0.710869
vn -0.196448 0.675332 0.710869
vn -0.196448 0.675332 0.710869
vn -0.196448 0.675332 0.710869
vn -0.919639 -0.041679 -0.390548
vn -0.919639 -0.041679 -0.390548
vn -0.919639 -0.041679 -0.390548
vn 0.955295 0.042969 0.292515
vn 0.955295 0.042969 0.292515
vn 0.955295 0.042969 0.292515
vn 0.955295 0.042969 0.292515
vn -0.953263 -0.040653 -0.299395
vn -0.953263 -0.040653 -0.299395
vn -0.953263 -0.040653 -0.299395
vn -0.953263 -0.040653 -0.299395
vn 0.207299 -0.614101 -0.761517
vn 0.207299 -0.614101 -0.761517
vn 0.207299 -0.614101 -0.761517
vn 0.207299 -0.614101 -0.761517
vn 0.001845 -0.998021 -0.062849
vn 0.001845 -0.998021 -0.062849
vn 0.001845 -0.998021 -0.062849
vn 0.009825 0.999950 -0.001917
vn 0.009825 0.999950 -0.001917
vn 0.009825 0.999950 -0.001917
vn 0.997574 -0.036348 0.059373
vn 0.997574 -0.036348 0.059373
vn 0.997574 -0.036348 0.059373
vn -0.796384 0.282804 -0.534598
vn -0.796384 0.282804 -0.534598
vn -0.796384 0.282804 -0.534598
vn -0.796384 0.282804 -0.534598
vn 0.567603 -0.005731 -0.823282
vn 0.567603 -0.005731 -0.823282
vn 0.567603 -0.005731 -0.823282
vn 0.567603 -0.005731 -0.823282
vn 0.802105 -0.263693 0.535811
vn 0.802105 -0.263693 0.535811
vn 0.802105 -0.263693 0.535811
vn 0.802105 -0.263693 0.535811
vn -0.537326 0.074759 0.840055
vn -0.537326 0.074759 0.840055
vn -0.537326 0.074759 0.840055
vn -0.537326 0.074759 0.840055
vn -0.247455 -0.968626 -0.023011
vn -0.247455 -0.968626 -0.023011
vn -0.247455 -0.968626 -0.023011
vn -0.247455 -0.968626 -0.023011
vn -0.574261 0.729640 -0.371280
vn -0.574261 0.729640 -0.371280
vn -0.574261 0.729640 -0.371280
vn -0.574261 0.729640 -0.371280
vn 0.819530 -0.170015 -0.547234
vn 0.819530 -0.170015 -0.547234
vn 0.819530 -0.170015 -0.547234
vn -0.623834 0.056420 0.779518
vn -0.623834 0.056420 0.779518
vn -0.623834 0.056420 0.779518
vn -0.623834 0.056420 0.779518
vn 0.458496 -0.085376 -0.884586
vn 0.458496 -0.085376 -0.884586
vn 0.458496 -0.085376 -0.884586
vn 0.458496 -0.085376 -0.884586
vn 0.604285 -0.696654 0.386670
vn 0.604285 -0.696654 0.386670
vn 0.604285 -0.696654 0.386670
vn 0.604285 -0.696654 0.386670
vn 0.357640 -0.913966 0.191729
vn 0.357640 -0.913966 0.191729
vn 0.357640 -0.913966 0.191729
vn -0.305695 0.937577 -0.165830
vn -0.305695 0.937577 -0.165830
vn -0.305695 0.937577 -0.165830
vn -0.489796 0.025970 0.871450
vn -0.489796 0.025970 0.871450
vn -0.489796 0.025970 0.871450
vn 0.617322 0.421327 -0.664377
vn 0.617322 0.421327 -0.664377
vn 0.617322 0.421327 -0.664377
vn 0.617322 0.421327 -0.664377
vn 0.725528 0.024466 0.687757
vn 0.725528 0.024466 0.687757
vn 0.725528 0.024466 0.687757
vn 0.725528 0.024466 0.687757
vn -0.620279 -0.406260 0.670974
vn -0.620279 -0.406260 0.670974
vn -0.620279 -0.406260 0.670974
vn -0.620279 -0.406260 0.670974
vn -0.747644 0.042811 -0.662718
vn -0.747644 0.042811 -0.662718
vn -0.747644 0.042811 -0.662718
vn -0.747644 0.042811 -0.662718
vn 0.039216 -0.965824 -0.256214
vn 0.039216 -0.965824 -0.256214
vn 0.039216 -0.965824 -0.256214
vn 0.039216 -0.965824 -0.256214
vn 0.673435 -0.052977 -0.737346
vn 0.673435 -0.052977 -0.737346
vn 0.673435 -0.052977 -0.737346
vn 0.673435 -0.052977 -0.737346
vn 0.705777 -0.027644 0.707894
vn 0.705777 -0.027644 0.707894
vn 0.705777 -0.027644 0.707894
vn -0.716343 0.066330 -0.694588
vn -0.716343 0.066330 -0.694588
vn -0.716343 0.066330 -0.694588
vn -0.716343 0.066330 -0.694588
vn 0.710728 -0.055419 0.701281
vn 0.710728 -0.055419 0.701281
vn 0.710728 -0.055419 0.701281
vn 0.710728 -0.055419 0.701281
vn -0.674030 0.047020 0.737206
vn -0.674030 0.047020 0.737206
vn -0.674030 0.047020 0.737206
vn -0.674030 0.047020 0.737206
vn -0.524879 -0.700182 0.483990
vn -0.524879 -0.700182 0.483990
vn -0.524879 -0.700182 0.483990
vn 0.501061 0.735236 -0.456472
vn 0.501061 0.735236 -0.456472
vn 0.501061 0.735236 -0.456472
vn -0.771565 0.257000 -0.581926
vn -0.771565 0.257000 -0.581926
vn -0.771565 0.257000 -0.581926
s off
g TerrainGrass2
usemtl initialShadingGroup
f 1/31/1 2/142/2 4/122/3 3/44/4
f 3/44/5 4/122/6 8/35/7 7/97/8
f 7/97/9 8/35/10 6/136/11 5/23/12
f 5/23/13 6/136/14 2/107/15 1/29/16
f 3/20/17 7/97/18 5/23/19 1/98/20
f 4/122/21 2/142/22 9/130/23 10/17/24
f 11/109/25 10/17/26 13/120/27
f 2/107/28 6/136/29 12/28/30 9/94/31
f 8/35/32 4/122/33 10/17/34 11/109/35
f 6/136/36 8/35/37 11/109/38 12/28/39
f 12/28/40 11/109/41 13/121/42
f 10/17/43 9/130/44 13/126/45
f 9/94/46 12/28/47 13/10/48
f 14/90/49 15/57/50 17/4/51 16/68/52
f 16/68/53 17/4/54 21/62/55 20/128/56
f 20/128/57 21/62/58 19/16/59 18/50/60
f 18/50/61 19/16/62 15/27/63 14/89/64
f 16/43/65 20/128/66 18/50/67 14/129/68
f 17/4/69 15/57/70 22/47/71 23/80/72
f 24/30/73 23/80/74 26/37/75
f 15/27/76 19/16/77 25/88/78 22/13/79
f 21/62/80 17/4/81 23/80/82 24/30/83
f 19/16/84 21/62/85 24/30/86 25/88/87
f 25/88/88 24/30/89 26/3/90
f 23/80/91 22/47/92 26/8/93
f 22/13/94 25/88/95 26/38/96
f 27/118/97 28/84/98 30/67/99 29/135/100
f 29/135/101 30/67/102 34/125/103 33/45/104
f 33/45/105 34/125/106 32/79/107 31/111/108
f 31/111/109 32/79/110 28/54/111 27/116/112
f 29/108/113 33/45/114 31/111/115 27/46/116
f 30/67/117 28/84/118 35/73/119 36/106/120
f 37/56/121 36/106/122 39/65/123
f 28/54/124 32/79/125 38/115/126 35/41/127
f 34/125/128 30/67/129 36/106/130 37/56/131
f 32/79/132 34/125/133 37/56/134 38/115/135
f 38/115/136 37/56/137 39/66/138
f 36/106/139 35/73/140 39/69/141
f 35/41/142 38/115/143 39/99/144
f 40/36/145 41/1/146 43/93/147 42/14/148
f 42/14/149 43/93/150 47/7/151 46/71/152
f 46/71/153 47/7/154 45/105/155 44/143/156
f 44/143/157 45/105/158 41/114/159 40/34/160
f 42/134/161 46/71/162 44/143/163 40/72/164
f 43/93/165 41/1/166 48/139/167 49/26/168
f 50/117/169 49/26/170 52/131/171
f 41/114/172 45/105/173 51/33/174 48/102/175
f 47/7/176 43/93/177 49/26/178 50/117/179
f 45/105/180 47/7/181 50/117/182 51/33/183
f 51/33/184 50/117/185 52/92/186
f 49/26/187 48/139/188 52/96/189
f 48/102/190 51/33/191 52/132/192
f 53/64/193 54/32/194 56/12/195 55/78/196
f 55/78/197 56/12/198 60/70/199 59/137/200
f 59/137/201 60/70/202 58/25/203 57/58/204
f 57/58/205 58/25/206 54/145/207 53/61/208
f 55/55/209 59/137/210 57/58/211 53/138/212
f 56/12/213 54/32/214 61/22/215 62/53/216
f 63/147/217 62/53/218 65/48/219
f 54/145/220 58/25/221 64/60/222 61/133/223
f 60/70/224 56/12/225 62/53/226 63/147/227
f 58/25/228 60/70/229 63/147/230 64/60/231
f 64/60/232 63/147/233 65/11/234
f 62/53/235 61/22/236 65/15/237
f 61/133/238 64/60/239 65/49/240
f 66/127/241 67/91/242 69/40/243 68/103/244
f 68/103/245 69/40/246 73/95/247 72/18/248
f 72/18/249 73/95/250 71/52/251 70/85/252
f 70/85/253 71/52/254 67/59/255 66/124/256
f 68/77/257 72/18/258 70/85/259 66/21/260
f 69/40/261 67/91/262 74/83/263 75/113/264
f 76/63/265 75/113/266 78/74/267
f 67/59/268 71/52/269 77/123/270 74/51/271
f 73/95/272 69/40/273 75/113/274 76/63/275
f 71/52/276 73/95/277 76/63/278 77/123/279
f 77/123/280 76/63/281 78/39/282
f 75/113/283 74/83/284 78/42/285
f 74/51/286 77/123/287 78/75/288
f 79/9/289 80/119/290 82/101/291 81/24/292
f 81/24/293 82/101/294 86/19/295 85/81/296
f 85/81/297 86/19/298 84/112/299 83/2/300
f 83/2/301 84/112/302 80/86/303 79/6/304
f 81/146/305 85/81/306 83/2/307 79/82/308
f 82/101/309 80/119/310 87/110/311 88/144/312
f 89/87/313 88/144/314 91/140/315
f 80/86/316 84/112/317 90/5/318 87/76/319
f 86/19/320 82/101/321 88/144/322 89/87/323
f 84/112/324 86/19/325 89/87/326 90/5/327
f 90/5/328 89/87/329 91/100/330
f 88/144/331 87/110/332 91/104/333
f 87/76/334 90/5/335 91/141/336
